<svg width="40" height="40" viewBox="0 0 33 33" fill="none" xmlns="http://www.w3.org/2000/svg">
<g clip-path="url(#clip0_856:320)">
<path d="M31.9521 5.74487C31.6609 3.01587 29.5056 0.860107 26.7764 0.569092C19.9321 -0.161377 13.0679 -0.161377 6.22388 0.569092C3.49463 0.860352 1.33911 3.01587 1.04785 5.74487C0.317383 12.5889 0.317383 19.4534 1.04785 26.2974C1.33911 29.0266 3.49463 31.1821 6.22363 31.4734C13.0676 32.2039 19.9321 32.2039 26.7764 31.4734C29.5056 31.1821 31.6609 29.0266 31.9521 26.2974C32.6826 19.4534 32.6826 12.5891 31.9521 5.74487Z" fill="url(#paint0_radial_856:320)"/>
<path d="M30.2117 6.90222C29.9534 4.48059 28.0408 2.56775 25.6189 2.3092C19.5457 1.66125 13.4543 1.66125 7.3811 2.3092C4.95947 2.56775 3.04663 4.48059 2.78809 6.90222C2.14014 12.9755 2.14014 19.0668 2.78809 25.1398C3.04663 27.5616 4.95947 29.4745 7.3811 29.7328C13.4543 30.381 19.5457 30.381 25.6187 29.7328C28.0405 29.4745 29.9534 27.5616 30.2117 25.1398C30.8599 19.0668 30.8599 12.9755 30.2117 6.90222Z" fill="url(#paint1_linear_856:320)"/>
<path d="M0.979492 25.634C1.00146 25.8552 1.02417 26.0764 1.04785 26.2976C1.33911 29.0266 3.49463 31.1821 6.22388 31.4734C13.0679 32.2039 19.9324 32.2039 26.7764 31.4734C29.5056 31.1821 31.6609 29.0266 31.9521 26.2976C31.9758 26.0764 31.9985 25.8552 32.0208 25.634H0.979492Z" fill="url(#paint2_linear_856:320)"/>
<path d="M31.9521 26.2973C32.3447 22.6198 32.5259 18.9365 32.4966 15.2536L25.1821 7.93916C24.2683 6.89595 22.9336 6.24483 21.3652 6.18843C18.1399 6.07222 14.9043 6.07808 11.6785 6.18892C8.99927 6.28121 7.12573 8.08199 6.64526 10.7287C6.56055 11.196 6.50977 11.6694 6.44312 12.1401V19.8994C6.47998 20.1508 6.53418 20.4011 6.55103 20.654C6.65845 22.2639 7.32007 23.6428 8.37939 24.5756L15.8228 32.0188C19.4756 32.0444 23.1287 31.8628 26.7764 31.4733C29.5056 31.1821 31.6609 29.0266 31.9521 26.2973Z" fill="url(#paint3_linear_856:320)"/>
<path d="M31.9521 26.2976C31.6611 29.0264 29.5051 31.1824 26.7764 31.4734C23.1292 31.8625 19.4753 32.0444 15.823 32.0188L8.39087 24.5867C9.25244 25.3408 10.3755 25.8 11.6787 25.8491C14.9038 25.9702 18.1401 25.967 21.3652 25.8508C24.2822 25.7454 26.3931 23.5864 26.4841 20.6694C26.5813 17.5723 26.5813 14.467 26.4841 11.3699C26.4426 10.0242 25.9702 8.84009 25.187 7.94409L32.4968 15.2539C32.5256 18.9363 32.3445 22.6201 31.9521 26.2976Z" fill="url(#paint4_linear_856:320)"/>
<path d="M20.2759 12.5562C19.3389 11.5359 17.9944 10.8958 16.5 10.8958C13.6694 10.8958 11.3745 13.1907 11.3745 16.0212C11.3745 17.5156 12.0146 18.8601 13.0349 19.7971L24.8936 31.6558C25.5212 31.6011 26.1489 31.5403 26.7761 31.4734C29.5054 31.1821 31.6609 29.0266 31.9521 26.2974C32.019 25.6702 32.0798 25.0425 32.1345 24.4148L20.2759 12.5562Z" fill="url(#paint5_linear_856:320)"/>
<path d="M32.438 19.4683L22.894 9.92456C22.6714 9.63232 22.3206 9.44263 21.9248 9.44263C21.2515 9.44263 20.7053 9.98853 20.7053 10.6621C20.7053 11.0579 20.895 11.4087 21.1873 11.6313L32.2673 22.7117C32.3425 21.6309 32.3994 20.5496 32.438 19.4683Z" fill="url(#paint6_linear_856:320)"/>
<path d="M6.44312 12.1401C6.50977 11.6694 6.56055 11.196 6.64526 10.7287C7.12549 8.08199 8.99927 6.28121 11.6785 6.18892C14.9043 6.07808 18.1399 6.07222 21.3652 6.18843C24.2812 6.29341 26.3931 8.45259 26.4841 11.3696C26.5811 14.467 26.5811 17.572 26.4841 20.6694C26.3931 23.5864 24.282 25.7453 21.3655 25.8505C18.1401 25.967 14.9038 25.9699 11.6787 25.8488C8.76221 25.7392 6.74609 23.5752 6.55103 20.6538C6.53418 20.4011 6.47998 20.1506 6.44312 19.8991C6.44312 17.3127 6.44312 14.7263 6.44312 12.1401ZM16.5027 24.1218C17.9788 24.1218 19.4563 24.166 20.9304 24.1115C23.2417 24.0258 24.6633 22.6464 24.7173 20.3374C24.7842 17.4602 24.7842 14.5791 24.7173 11.7016C24.6633 9.39302 23.2407 7.9814 20.9304 7.93233C17.998 7.87032 15.0625 7.87081 12.1301 7.93233C9.8374 7.98042 8.41162 9.36348 8.34937 11.6467C8.27026 14.5603 8.27026 17.479 8.34937 20.3925C8.41162 22.6755 9.8374 24.0266 12.1304 24.1115C13.5859 24.1657 15.0452 24.1218 16.5027 24.1218Z" fill="url(#paint7_linear_856:320)"/>
<path d="M6.44312 12.1401C6.50977 11.6694 6.56055 11.196 6.64526 10.7287C7.12549 8.08199 8.99927 6.28121 11.6785 6.18892C14.9043 6.07808 18.1399 6.07222 21.3652 6.18843C24.2812 6.29341 26.3931 8.45259 26.4841 11.3696C26.5811 14.467 26.5811 17.572 26.4841 20.6694C26.3931 23.5864 24.282 25.7453 21.3655 25.8505C18.1401 25.967 14.9038 25.9699 11.6787 25.8488C8.76221 25.7392 6.74609 23.5752 6.55103 20.6538C6.53418 20.4011 6.47998 20.1506 6.44312 19.8991C6.44312 17.3127 6.44312 14.7263 6.44312 12.1401ZM16.5027 24.1218C17.9788 24.1218 19.4563 24.166 20.9304 24.1115C23.2417 24.0258 24.6633 22.6464 24.7173 20.3374C24.7842 17.4602 24.7842 14.5791 24.7173 11.7016C24.6633 9.39302 23.2407 7.9814 20.9304 7.93233C17.998 7.87032 15.0625 7.87081 12.1301 7.93233C9.8374 7.98042 8.41162 9.36348 8.34937 11.6467C8.27026 14.5603 8.27026 17.479 8.34937 20.3925C8.41162 22.6755 9.8374 24.0266 12.1304 24.1115C13.5859 24.1657 15.0452 24.1218 16.5027 24.1218Z" fill="white"/>
<path d="M16.5 10.896C13.6694 10.896 11.3745 13.1907 11.3745 16.0212C11.3745 18.8521 13.6694 21.1467 16.5 21.1467C19.3308 21.1467 21.6255 18.8521 21.6255 16.0212C21.6255 13.1907 19.3308 10.896 16.5 10.896ZM16.5 19.3821C14.6438 19.3821 13.1392 17.8774 13.1392 16.0212C13.1392 14.165 14.6438 12.6604 16.5 12.6604C18.3562 12.6604 19.8608 14.165 19.8608 16.0212C19.8608 17.8774 18.3562 19.3821 16.5 19.3821Z" fill="white"/>
<path d="M23.144 10.6621C23.144 11.3354 22.5981 11.8813 21.9248 11.8813C21.2515 11.8813 20.7053 11.3354 20.7053 10.6621C20.7053 9.98853 21.2515 9.44263 21.9248 9.44263C22.5981 9.44263 23.144 9.98853 23.144 10.6621Z" fill="white"/>
</g>
<defs>
<radialGradient id="paint0_radial_856:320" cx="0" cy="0" r="1" gradientUnits="userSpaceOnUse" gradientTransform="translate(7.05982 27.9867) scale(35.2904)">
<stop stop-color="#FAE100"/>
<stop offset="0.0544" stop-color="#FADC04"/>
<stop offset="0.1167" stop-color="#FBCE0E"/>
<stop offset="0.1829" stop-color="#FCB720"/>
<stop offset="0.2514" stop-color="#FE9838"/>
<stop offset="0.3054" stop-color="#FF7950"/>
<stop offset="0.4922" stop-color="#FF1C74"/>
<stop offset="1" stop-color="#6C1CD1"/>
</radialGradient>
<linearGradient id="paint1_linear_856:320" x1="12.7733" y1="13.9248" x2="-41.4385" y2="-16.5693" gradientUnits="userSpaceOnUse">
<stop stop-color="#A1B5D8" stop-opacity="0"/>
<stop offset="0.3094" stop-color="#90A2BD" stop-opacity="0.309804"/>
<stop offset="0.7554" stop-color="#7C8B9C" stop-opacity="0.756863"/>
<stop offset="1" stop-color="#748290"/>
</linearGradient>
<linearGradient id="paint2_linear_856:320" x1="16.5" y1="28.2691" x2="16.5" y2="33.2571" gradientUnits="userSpaceOnUse">
<stop stop-color="#FAE100" stop-opacity="0"/>
<stop offset="0.3068" stop-color="#FCA800" stop-opacity="0.305882"/>
<stop offset="0.6275" stop-color="#FE7300" stop-opacity="0.627451"/>
<stop offset="0.8685" stop-color="#FF5200" stop-opacity="0.866667"/>
<stop offset="1" stop-color="#FF4500"/>
</linearGradient>
<linearGradient id="paint3_linear_856:320" x1="14.6795" y1="14.1554" x2="6.76004" y2="6.23596" gradientUnits="userSpaceOnUse">
<stop stop-color="#833AB4" stop-opacity="0"/>
<stop offset="1" stop-color="#833AB4"/>
</linearGradient>
<linearGradient id="paint4_linear_856:320" x1="22.4312" y1="29.2892" x2="18.4785" y2="10.6548" gradientUnits="userSpaceOnUse">
<stop stop-color="#833AB4" stop-opacity="0"/>
<stop offset="1" stop-color="#833AB4"/>
</linearGradient>
<linearGradient id="paint5_linear_856:320" x1="23.9353" y1="23.4566" x2="8.05882" y2="7.58004" gradientUnits="userSpaceOnUse">
<stop stop-color="#833AB4" stop-opacity="0"/>
<stop offset="1" stop-color="#833AB4"/>
</linearGradient>
<linearGradient id="paint6_linear_856:320" x1="25.1129" y1="13.8502" x2="19.8629" y2="8.60014" gradientUnits="userSpaceOnUse">
<stop stop-color="#833AB4" stop-opacity="0"/>
<stop offset="1" stop-color="#833AB4"/>
</linearGradient>
<linearGradient id="paint7_linear_856:320" x1="22.8536" y1="9.71179" x2="9.90891" y2="22.6565" gradientUnits="userSpaceOnUse">
<stop stop-color="#833AB4"/>
<stop offset="0.0922" stop-color="#9C3495"/>
<stop offset="0.2927" stop-color="#DC2546"/>
<stop offset="0.392" stop-color="#FD1D1D"/>
<stop offset="0.5589" stop-color="#FC6831"/>
<stop offset="0.6887" stop-color="#FC9B40"/>
<stop offset="0.7521" stop-color="#FCAF45"/>
<stop offset="0.7806" stop-color="#FDB750"/>
<stop offset="0.8656" stop-color="#FECB6A"/>
<stop offset="0.9415" stop-color="#FFD87A"/>
<stop offset="1" stop-color="#FFDC80"/>
</linearGradient>
<clipPath id="clip0_856:320">
<rect width="64" height="64" fill="white" transform="translate(0.5 0.0212402)"/>
</clipPath>
</defs>
</svg>
