<svg width="64" height="64" viewBox="0 0 64 64" fill="none" xmlns="http://www.w3.org/2000/svg">
<g clip-path="url(#clip0_111:214)">
<path d="M51.2352 22.6967C51.0181 21.8798 50.5902 21.1342 49.9944 20.5346C49.3986 19.9349 48.6558 19.5023 47.8402 19.28C44.8381 18.4727 32.8381 18.4727 32.8381 18.4727C32.8381 18.4727 20.8381 18.4727 17.8359 19.28C17.0203 19.5023 16.2775 19.9349 15.6817 20.5346C15.0859 21.1342 14.6581 21.8798 14.441 22.6967C13.6381 25.712 13.6381 32 13.6381 32C13.6381 32 13.6381 38.288 14.441 41.3033C14.6581 42.1202 15.0859 42.8658 15.6817 43.4654C16.2775 44.065 17.0203 44.4977 17.8359 44.72C20.8381 45.5273 32.8381 45.5273 32.8381 45.5273C32.8381 45.5273 44.8381 45.5273 47.8402 44.72C48.6558 44.4977 49.3986 44.065 49.9944 43.4654C50.5902 42.8658 51.0181 42.1202 51.2352 41.3033C52.0381 38.288 52.0381 32 52.0381 32C52.0381 32 52.0381 25.712 51.2352 22.6967Z" fill="#FF0302"/>
<path d="M28.9108 37.7099V26.2902L38.9471 32L28.9108 37.7099Z" fill="#FEFEFE"/>
</g>
<defs>
<clipPath id="clip0_111:214">
<rect width="64" height="64" fill="white" transform="translate(13.6 12.8)"/>
</clipPath>
</defs>
</svg>
